<svg width="65" height="32" viewBox="0 0 65 32" fill="none" xmlns="http://www.w3.org/2000/svg">
<path d="M19.2699 3.38779C18.8916 3.61914 18.7514 4.1281 19.0034 4.49185L25.2738 13.6333C25.3414 13.7334 25.471 13.768 25.5736 13.7055C25.6757 13.6432 25.703 13.5117 25.6462 13.4063L20.3736 3.65441C20.2391 3.40428 19.9719 3.26868 19.6975 3.26868C19.5505 3.26868 19.4016 3.30716 19.2699 3.38779ZM14.9239 3.74535C14.6005 4.08184 14.5925 4.64257 14.9477 4.93989L22.6921 11.4724C22.7842 11.5507 22.9163 11.5521 22.9992 11.4653C23.0819 11.3785 23.0739 11.2456 22.9921 11.1581L16.118 3.72153C15.9675 3.55775 15.7605 3.47941 15.5498 3.47918C15.3226 3.47918 15.0915 3.57081 14.9239 3.74535ZM23.3279 4.43344C22.9662 4.54178 22.7361 4.93577 22.8687 5.28485L25.4891 12.3027C25.5246 12.3989 25.6206 12.4551 25.7177 12.426C25.815 12.3969 25.8647 12.297 25.8411 12.1974L24.1791 4.8927C24.1125 4.59264 23.8283 4.40412 23.5292 4.40412C23.4621 4.40412 23.3943 4.41374 23.3279 4.43344ZM10.8726 5.61217C10.6234 6.0538 10.7652 6.63675 11.2205 6.86283L23.7843 13.1777C23.9029 13.2378 24.0456 13.2025 24.1106 13.087C24.1759 12.9716 24.1326 12.8314 24.0197 12.7606L12.1228 5.26423C11.984 5.17628 11.8301 5.13573 11.6773 5.13573C11.3574 5.13573 11.0411 5.31371 10.8726 5.61217ZM26.4844 6.41617C26.1851 6.42075 25.9254 6.6434 25.9428 6.94278L26.4058 14.8975C26.4107 14.983 26.4759 15.0508 26.5609 15.0501C26.6459 15.0494 26.71 14.9804 26.7134 14.895L27.0354 6.94988C27.0476 6.6537 26.7888 6.41617 26.4931 6.41617C26.4901 6.41617 26.4871 6.41617 26.4844 6.41617ZM7.68285 8.8813C7.52437 9.47731 7.86514 10.1345 8.4741 10.2504L19.9183 12.4038C20.0587 12.4306 20.1942 12.3561 20.2295 12.2196C20.2645 12.0833 20.1807 11.9532 20.0465 11.9078L9.05007 8.08509C8.94404 8.04867 8.83732 8.03149 8.73243 8.03149C8.25126 8.03126 7.81293 8.39157 7.68285 8.8813ZM27.8942 9.07851L27.3938 12.7082C27.3815 12.7909 27.4231 12.8742 27.5054 12.8949C27.5878 12.9157 27.6631 12.8635 27.6922 12.7831L28.9555 9.36232C29.0629 9.08103 28.8497 8.77982 28.5561 8.7079C28.5052 8.69553 28.4535 8.68934 28.4026 8.68934C28.1576 8.68934 27.9272 8.82884 27.8942 9.07851ZM29.111 11.149L26.7036 16.4226C26.6683 16.4991 26.691 16.5905 26.7659 16.631C26.8405 16.6713 26.9289 16.6413 26.9743 16.569L30.0536 11.6923C30.2135 11.4413 30.1017 11.1002 29.8393 10.9561C29.7479 10.9059 29.6471 10.881 29.5493 10.881C29.3657 10.881 29.1925 10.9696 29.111 11.149ZM5.75201 13.2914C5.75201 13.9078 6.25081 14.4435 6.86892 14.408L22.249 13.52C22.4077 13.5115 22.5355 13.3919 22.5355 13.2336C22.5355 13.0754 22.4074 12.9549 22.249 12.9471L6.86892 12.1742C6.85175 12.1736 6.83457 12.1731 6.81762 12.1731C6.22676 12.1731 5.75201 12.6915 5.75201 13.2914ZM29.8612 13.3706L28.4924 15.2816C28.4352 15.362 28.434 15.4397 28.4942 15.4997C28.5542 15.5597 28.6415 15.5515 28.7127 15.5011L30.6367 14.1283C30.8792 13.9554 30.8421 13.571 30.6278 13.3617C30.5187 13.2554 30.3674 13.1965 30.2219 13.1965C30.0818 13.1965 29.9469 13.2513 29.8612 13.3706ZM20.7734 14.1412L7.63727 21.0001C7.09175 21.2823 6.93373 22.0011 7.24932 22.5309C7.5649 23.0609 8.26775 23.2623 8.78006 22.9191L8.78899 22.9157L21.0666 14.6334C21.1973 14.5448 21.247 14.3766 21.166 14.2408C21.1126 14.1508 21.0192 14.1043 20.9218 14.1043C20.8719 14.1043 20.8208 14.1164 20.7734 14.1412ZM18.254 14.2985L6.37241 16.6931C5.76896 16.8147 5.42978 17.4728 5.59284 18.0677C5.7559 18.6628 6.3928 19.0432 6.96259 18.8446L18.4058 14.8522C18.5568 14.7997 18.6481 14.652 18.6062 14.4994C18.5703 14.3691 18.4517 14.2917 18.3209 14.2917C18.2989 14.2917 18.2765 14.2939 18.254 14.2985ZM30.1878 15.2798L26.3142 17.7314C26.2416 17.7765 26.2096 17.8636 26.249 17.939C26.2884 18.0143 26.3779 18.0368 26.4565 18.004L30.6907 16.2492C30.9685 16.134 31.0597 15.7794 30.9214 15.5139C30.8247 15.3281 30.625 15.2113 30.4294 15.2113C30.3454 15.2113 30.262 15.2329 30.1878 15.2798ZM20.2359 15.9778L13.55 26.6592C13.2658 27.1132 13.466 27.7186 13.9359 27.9754C14.4061 28.2326 15.0235 28.0741 15.2521 27.5896L20.6305 16.1933C20.6834 16.0811 20.6497 15.9477 20.541 15.8884C20.5075 15.8701 20.472 15.8616 20.437 15.8616C20.358 15.8616 20.2817 15.9049 20.2359 15.9778ZM18.4132 17.0802L10.1942 24.5106C9.79712 24.87 9.83239 25.51 10.2176 25.8822C10.6026 26.2547 11.2434 26.2687 11.5892 25.8591L18.7361 17.3924C18.8162 17.2976 18.8199 17.1608 18.7308 17.0747C18.688 17.0333 18.6344 17.0138 18.5801 17.0138C18.5208 17.0138 18.461 17.0369 18.4132 17.0802ZM30.298 17.0905L28.1576 17.9071C28.077 17.9376 28.0234 18.009 28.0422 18.092C28.0609 18.1751 28.1411 18.2161 28.2256 18.2092L30.5128 18.0246C30.7739 18.0038 30.928 17.7058 30.8694 17.4506C30.8211 17.2392 30.6287 17.0672 30.4251 17.0669C30.3827 17.0669 30.3401 17.0743 30.298 17.0905ZM20.7727 17.4071C20.6745 17.4121 20.6039 17.4971 20.6044 17.5944L20.5806 27.6373C20.5797 28.0471 20.9486 28.3519 21.3526 28.3304C21.757 28.3091 22.0909 27.9644 22.0458 27.5594L20.9603 17.5757C20.9502 17.4801 20.876 17.4068 20.7821 17.4068C20.7791 17.4068 20.7759 17.4068 20.7727 17.4071ZM30.0312 18.5865L24.9832 18.9562C24.8991 18.9626 24.8298 19.0249 24.8295 19.1101C24.8291 19.1951 24.8978 19.2583 24.9823 19.265L30.0236 19.6748C30.3216 19.699 30.5675 19.434 30.5696 19.1346C30.5717 18.8465 30.3477 18.5854 30.0651 18.5854C30.0538 18.5854 30.0426 18.5856 30.0312 18.5865ZM21.7172 18.6548C21.6412 18.7017 21.6219 18.7993 21.6638 18.8781L25.2832 25.7045C25.4541 26.0268 25.889 26.1124 26.2027 25.9187C26.5162 25.7249 26.6351 25.2986 26.4212 24.9985L21.9405 18.707C21.9064 18.6589 21.8535 18.6309 21.7996 18.6309C21.7715 18.6309 21.7433 18.6387 21.7172 18.6548ZM19.7376 19.1456L17.3162 27.7511C17.1937 28.1863 17.5088 28.6222 17.9487 28.7139C18.3887 28.8055 18.8524 28.5272 18.9133 28.0826L20.1271 19.2276C20.142 19.1191 20.08 19.0151 19.9725 18.9926C19.959 18.9896 19.9455 18.9885 19.9325 18.9885C19.8415 18.9885 19.7637 19.0533 19.7376 19.1456ZM23.1685 19.2961C23.1272 19.3703 23.1579 19.4601 23.2278 19.5059L28.3131 22.8403C28.5845 23.0181 28.9619 22.8949 29.1213 22.6083C29.2805 22.3218 29.1893 21.9381 28.8911 21.7993L23.378 19.2359C23.3533 19.2242 23.3274 19.2187 23.3024 19.2187C23.2477 19.2187 23.1966 19.2453 23.1685 19.2961ZM27.0256 20.1306C27.0034 20.2126 27.0546 20.2861 27.1327 20.3221L29.3022 21.3215C29.5759 21.4477 29.8915 21.2216 29.9698 20.9325C30.0481 20.6434 29.8858 20.2898 29.5915 20.26L27.2152 20.0199C27.2067 20.0193 27.1985 20.0188 27.1902 20.0188C27.1133 20.0188 27.0459 20.0564 27.0256 20.1306ZM21.8383 20.58C21.7532 20.6079 21.7135 20.6977 21.7348 20.7845L23.2021 26.8873C23.288 27.2438 23.6961 27.4277 24.0463 27.3129C24.3967 27.1979 24.6161 26.8074 24.4743 26.47L22.0438 20.6833C22.0158 20.6166 21.9545 20.5722 21.8869 20.5722C21.8711 20.5722 21.8546 20.5745 21.8383 20.58ZM24.194 20.8572C24.1361 20.9192 24.1466 21.0113 24.2009 21.0752L26.9573 24.3304C27.1859 24.6 27.6407 24.5576 27.8871 24.2926C28.1335 24.0276 28.1551 23.5795 27.8587 23.3633L24.412 20.8478C24.3781 20.823 24.3394 20.8097 24.3021 20.8097C24.2623 20.8097 24.224 20.8249 24.194 20.8572Z" fill="url(#paint0_radial_4_198)"/>
<g clip-path="url(#clip0_4_198)">
<path d="M51.0933 19.0389C51.2738 19.0389 51.3419 19.1074 51.4101 19.3342C51.7724 20.5168 52.8591 21.153 54.1277 21.153C55.3963 21.153 56.3012 20.5624 56.3012 19.6067C56.3012 18.7651 55.7131 18.1745 54.264 17.7423L52.6332 17.2644C50.211 16.5597 48.6257 15.0363 48.6257 12.6953C48.6257 9.85369 50.6856 8.14899 53.7654 8.14899C56.8453 8.14899 58.7689 10.2174 59.0857 12.4C59.1084 12.6268 58.9493 12.8322 58.7007 12.8322H56.3012C56.0967 12.8322 56.0072 12.7638 55.939 12.5826C55.5086 11.4456 54.6036 11.0591 53.7654 11.0591C52.6559 11.0591 51.7724 11.5826 51.7724 12.4913C51.7724 13.4456 52.4287 13.9691 53.6973 14.3329L55.4858 14.8336C57.9762 15.5383 59.4479 17.1074 59.4479 19.494C59.4479 22.1087 57.3426 24.0631 54.1277 24.0631C50.6629 24.0631 48.6029 21.8349 48.2634 19.4712C48.2407 19.2443 48.4211 19.0389 48.6484 19.0389H51.0933ZM38.8902 8.39865H47.448C47.6525 8.39865 47.833 8.5812 47.833 8.78523V11.0134C47.833 11.2174 47.6525 11.4 47.448 11.4H41.6292V14.5826H46.0899C46.3158 14.5826 46.4749 14.7651 46.4749 14.9691V17.1973C46.4749 17.4014 46.3171 17.5839 46.0899 17.5839H41.6292V23.4269C41.6292 23.6309 41.4487 23.8135 41.2442 23.8135H38.8902C38.6643 23.8135 38.5052 23.6309 38.5052 23.4269V8.78523C38.5052 8.5812 38.6629 8.39865 38.8902 8.39865ZM34.1581 8.39865H36.5121C36.7153 8.39865 36.8971 8.5812 36.8971 8.78523V23.4269C36.8971 23.6309 36.7166 23.8135 36.5121 23.8135H34.1581C33.9322 23.8135 33.7731 23.6309 33.7731 23.4269V8.78523C33.7731 8.5812 33.9309 8.39865 34.1581 8.39865Z" fill="#8427E2"/>
</g>
<defs>
<radialGradient id="paint0_radial_4_198" cx="0" cy="0" r="1" gradientUnits="userSpaceOnUse" gradientTransform="translate(22.555 16.5764) scale(21.2127 21.2166)">
<stop stop-color="#72C9F8"/>
<stop offset="0.15" stop-color="#72C9F8"/>
<stop offset="0.448315" stop-color="#8427E2"/>
<stop offset="0.63" stop-color="#8427E2"/>
<stop offset="1" stop-color="#8427E2"/>
</radialGradient>
<clipPath id="clip0_4_198">
<rect width="25.6748" height="15.9141" fill="white" transform="translate(33.7731 8.14899)"/>
</clipPath>
</defs>
</svg>
